<svg xmlns="http://www.w3.org/2000/svg" width="24" height="24"><rect id="backgroundrect" width="100%" height="100%" x="0" y="0" fill="none" stroke="none"/><g class="currentLayer" style=""><title>Layer 1</title><path d="M0 0h24v24H0z" fill="none" id="svg_1"/><path fill="#ffffff" fill-opacity="1" stroke="#ffffff" stroke-opacity="1" stroke-width="2" stroke-dasharray="none" stroke-linejoin="round" stroke-linecap="butt" stroke-dashoffset="" fill-rule="nonzero" opacity="1" marker-start="" marker-mid="" marker-end="" d="M3.4897959232330322,11.82653060555458 C3.4897959232330322,7.130398008869498 7.293663326547949,3.3265306055545807 11.989795923233032,3.3265306055545807 C16.685928519918114,3.3265306055545807 20.489795923233032,7.130398008869498 20.489795923233032,11.82653060555458 C20.489795923233032,16.522663202239663 16.685928519918114,20.32653060555458 11.989795923233032,20.32653060555458 C7.293663326547949,20.32653060555458 3.4897959232330322,16.522663202239663 3.4897959232330322,11.82653060555458 z" id="svg_3" class="selected"/><path d="M9 16h2V8H9v8zm3-14C6.48 2 2 6.48 2 12s4.48 10 10 10 10-4.48 10-10S17.52 2 12 2zm0 18c-4.41 0-8-3.59-8-8s3.59-8 8-8 8 3.59 8 8-3.59 8-8 8zm1-4h2V8h-2v8z" id="svg_2"/></g></svg>