<svg xmlns="http://www.w3.org/2000/svg" width="24" height="24"><rect id="backgroundrect" width="100%" height="100%" x="0" y="0" fill="none" stroke="none" class="" style=""/><g class="currentLayer" style=""><title>Layer 1</title><path d="M0,0 h24 v24 H0 z" fill="none" id="svg_1" class=""/><path fill="#ffffff" fill-opacity="1" stroke="#ffffff" stroke-opacity="1" stroke-width="2" stroke-dasharray="none" stroke-linejoin="round" stroke-linecap="butt" stroke-dashoffset="" fill-rule="nonzero" opacity="1" marker-start="" marker-mid="" marker-end="" d="M4.448979623950265,11.857142806053162 C4.448979623950265,7.437253303290731 7.914928542198016,3.8571428060531616 12.19387782398536,3.8571428060531616 C16.472827105772705,3.8571428060531616 19.938776024020456,7.437253303290731 19.938776024020456,11.857142806053162 C19.938776024020456,16.277032308815592 16.472827105772705,19.85714280605316 12.19387782398536,19.85714280605316 C7.914928542198016,19.85714280605316 4.448979623950265,16.277032308815592 4.448979623950265,11.857142806053162 z" id="svg_3" class="selected"/><path d="M10,16.5 l6,-4.5 l-6,-4.5 v9 zM12,2 C6.48,2 2,6.48 2,12 s4.48,10 10,10 s10,-4.48 10,-10 S17.52,2 12,2 zm0,18 c-4.41,0 -8,-3.59 -8,-8 s3.59,-8 8,-8 s8,3.59 8,8 s-3.59,8 -8,8 z" id="svg_2" class=""/></g></svg>